<?xml version="1.0" encoding="utf-8"?>
<!-- Generator: Adobe Illustrator 16.0.0, SVG Export Plug-In . SVG Version: 6.00 Build 0)  -->
<!DOCTYPE svg PUBLIC "-//W3C//DTD SVG 1.1//EN" "http://www.w3.org/Graphics/SVG/1.1/DTD/svg11.dtd">
<svg version="1.1" id="Layer_1" xmlns="http://www.w3.org/2000/svg" xmlns:xlink="http://www.w3.org/1999/xlink" x="0px" y="0px"
	 width="435.782px" height="74.807px" viewBox="0 0 435.782 74.807" enable-background="new 0 0 435.782 74.807"
	 xml:space="preserve">
<path fill="#FFFFFF" d="M134.143,54.691c-7.229,0-12.19-3.034-14.349-8.774c-0.802-2.091-1.301-4.673-1.301-11.062
	c0-6.384,0.499-8.968,1.302-11.068c2.156-5.735,7.117-8.768,14.348-8.768c7.193,0,12.138,3.033,14.298,8.77
	c0.801,2.102,1.298,4.687,1.298,11.066c0,6.384-0.497,8.966-1.298,11.064C146.278,51.657,141.334,54.691,134.143,54.691
	 M134.143,17.545c-6.171,0-10.205,2.4-11.99,7.133c-0.7,1.852-1.135,4.2-1.135,10.177c0,5.973,0.435,8.32,1.135,10.169
	c1.785,4.738,5.819,7.14,11.99,7.14c4.213,0,9.704-1.238,11.934-7.137c0.701-1.835,1.135-4.176,1.135-10.172
	c0-6.016-0.434-8.349-1.133-10.162C144.847,21.431,141.778,17.545,134.143,17.545"/>
<path fill="#FFFFFF" d="M255.674,54.691h-23.023V15.019h2.521v37.149h20.503V54.691z"/>
<path fill="#FFFFFF" d="M164.595,54.691h-4.891V15.018l4.837,0.012c2.627-0.028,11.665,0.333,17.702,6.117
	c3.525,3.375,5.312,7.967,5.312,13.647c0,5.662-1.786,10.255-5.309,13.649C176.234,54.241,167.215,54.691,164.595,54.691
	 M162.226,52.155l1.931,0.002c0.095,0.003,10.272,0.322,16.346-5.537c3.008-2.897,4.533-6.876,4.533-11.825
	c0-4.96-1.525-8.935-4.532-11.813c-5.963-5.726-16.138-5.445-16.236-5.441h-2.042V52.155z"/>
<path fill="#FFFFFF" d="M226.316,54.691h-26.01v-2.523h22.224l-13.578-32.621l-14.769,35.144h-2.734l17.511-41.68L226.316,54.691z"
	/>
<path fill="#FFFFFF" d="M42.151,74.807c-1.581,0-3.086-0.167-4.24-0.471L5.207,65.698C2.335,64.942,0,61.911,0,58.941v-44.09
	c0-1.551,0.614-2.913,1.73-3.836c1.121-0.912,2.577-1.245,4.102-0.94l33.762,6.816c2.187,0.442,5.852,0.321,8.003-0.264L75.61,9.043
	L46.165,2.857c-2.208-0.461-5.915-0.444-8.094,0.037L10.48,8.95c-0.318,0.075-0.655,0.021-0.937-0.156
	c-0.289-0.181-0.49-0.467-0.566-0.806c-0.073-0.333-0.013-0.67,0.169-0.955c0.183-0.283,0.464-0.479,0.795-0.55l27.591-6.055
	c2.518-0.558,6.626-0.574,9.156-0.037l30.27,6.352c0.687,0.146,2.746,0.585,2.799,2.178c0.042,1.593-1.993,2.149-2.662,2.332
	l-28.837,7.812c-2.518,0.68-6.629,0.813-9.167,0.297L5.336,12.553c-0.769-0.157-1.481-0.008-2.006,0.418
	c-0.521,0.425-0.808,1.094-0.808,1.88v44.09c0,1.832,1.554,3.85,3.326,4.316l32.711,8.645c2.138,0.559,5.716,0.5,7.812-0.13
	l32-9.537c1.774-0.529,3.331-2.614,3.331-4.462V15.019h2.44l0.141,0.23l21.148,34.488V15.019h2.524v39.672h-2.444l-0.141-0.231
	L84.222,19.971v37.803c0,2.951-2.299,6.038-5.125,6.881l-32.01,9.545C45.77,74.585,43.971,74.807,42.151,74.807"/>
<path fill="#FFFFFF" d="M409.465,54.691h-2.521V15.019h2.521V54.691z"/>
<path fill="#FFFFFF" d="M435.782,54.691h-3.589l-0.142-0.14l-21.042-20.776l19.505-18.756h3.637l-19.526,18.774L435.782,54.691z"/>
<path fill="#FFFFFF" d="M275.582,54.691H263.1V7.042h12.481c1.618-0.034,7.211,0.139,10.913,3.764
	c2.095,2.051,3.156,4.808,3.156,8.193c0,5.926-2.812,8.998-5.524,10.583c3.273,1.329,7.723,4.326,7.73,10.798
	c0.028,0.413,0.29,5.616-3.498,9.706C285.518,53.142,281.219,54.691,275.582,54.691 M265.618,52.168h9.964
	c4.909,0,8.587-1.278,10.93-3.8c3.097-3.343,2.826-7.824,2.822-7.869l-0.006-0.035l0.004-0.011c0-8.33-8.991-9.391-9.374-9.432
	l-0.432-0.046v-2.411l0.42-0.056c0.293-0.039,7.181-1.05,7.181-9.509c0-2.682-0.806-4.833-2.395-6.392
	c-3.182-3.116-8.523-3.06-9.122-3.043l-9.992,0V52.168z"/>
<path fill="#FFFFFF" d="M385.828,54.691c-7.226,0-12.191-3.034-14.358-8.773c-0.802-2.106-1.298-4.691-1.298-11.063
	c0-6.366,0.496-8.954,1.298-11.067c2.165-5.736,7.13-8.769,14.358-8.769c5.206,0,9.206,1.575,11.89,4.683l0.258,0.299l-1.6,2.066
	l-0.385-0.47c-2.741-3.349-7.04-4.052-10.163-4.052c-6.175,0-10.211,2.4-11.996,7.133c-0.699,1.842-1.132,4.186-1.132,10.177
	c0,5.994,0.433,8.334,1.131,10.168c1.786,4.739,5.822,7.142,11.997,7.142c3.129,0,7.436-0.706,10.185-4.067l0.384-0.47l1.597,2.054
	l-0.257,0.3C395.056,53.106,391.049,54.691,385.828,54.691"/>
<path fill="#FFFFFF" d="M324.007,54.691h-23.023V15.019h2.521v37.149h20.503V54.691z"/>
<path fill="#FFFFFF" d="M345.489,54.691c-7.229,0-12.189-3.034-14.349-8.774c-0.802-2.091-1.301-4.673-1.301-11.062
	c0-6.384,0.499-8.968,1.302-11.068c2.156-5.735,7.117-8.768,14.348-8.768c7.193,0,12.138,3.033,14.299,8.77
	c0.801,2.102,1.297,4.687,1.297,11.066c0,6.384-0.496,8.966-1.298,11.064C357.624,51.657,352.68,54.691,345.489,54.691
	 M345.489,17.545c-6.171,0-10.205,2.4-11.99,7.133c-0.7,1.852-1.135,4.2-1.135,10.177c0,5.973,0.435,8.32,1.135,10.169
	c1.785,4.738,5.819,7.14,11.99,7.14c4.213,0,9.704-1.238,11.934-7.137c0.701-1.835,1.135-4.176,1.135-10.172
	c0-6.016-0.434-8.349-1.133-10.162C356.193,21.431,353.125,17.545,345.489,17.545"/>
<g>
</g>
<g>
</g>
<g>
</g>
<g>
</g>
<g>
</g>
<g>
</g>
</svg>
